:FULLY-SPECIFIED
:FORCE-ALL-JOINTS-BE-3DOF
:DEGREES
2446
root 2.43158 15.0531 -23.6365 946.794 83.2886 -130.743
lfemur -33.2306 21.939 -14.5863
ltibia 71.1629 0 0
lfoot -24.6249 18.2035 0
ltoes -32.0906 0 0
rfemur -49.8014 -23.8547 12.5748
rtibia 57.1165 0 0
rfoot 9.79992 1.13354 0
rtoes 3.64599 0 0
lowerback 17.6928 1.13625 -3.12476
upperback -0.22332 1.2928 3.33948
thorax -10.3183 0.912161 5.07512
lowerneck 3.91506 -13.2128 -15.0142
upperneck 0.478357 -18.3733 14.0976
head 2.21899 -9.30211 6.03495
lclavicle 7.57256e-015 5.23039e-015 0
lhumerus -27.3604 -58.4151 108.335
lradius 95.9578 0 0
lwrist 55.0123 0 0
lhand -6.8579 411.617 0
lfingers 7.12502 0 0
lthumb 18.9944 -639.43 0
rclavicle 7.57256e-015 5.23039e-015 0
rhumerus 21.9337 18.4381 -64.745
rradius 113.364 0 0
rwrist -9.62403 0 0
rhand -25.6404 -404.083 0
rfingers 7.12502 0 0
rthumb 0.894242 286.305 0
2447
root 2.50252 15.0321 -23.6376 945.128 83.1724 -132.26
lfemur -32.7838 21.9427 -14.3811
ltibia 71.3195 0 0
lfoot -25.0162 18.1493 0
ltoes -32.5188 0 0
rfemur -48.9323 -23.4837 11.7795
rtibia 55.7446 0 0
rfoot 11.0401 1.20171 0
rtoes 4.73284 0 0
lowerback 17.5588 0.987787 -3.30851
upperback -0.28699 1.0651 3.39309
thorax -10.2896 0.815393 5.30143
lowerneck 3.84501 -13.2082 -15.0996
upperneck 0.788391 -18.3777 13.9131
head 2.31184 -9.30138 5.97578
lclavicle 7.60861e-015 6.00841e-015 0
lhumerus -29.1788 -57.8748 109.046
lradius 97.3834 0 0
lwrist 57.1172 0 0
lhand -5.8672 412.477 0
lfingers 7.12502 0 0
lthumb 19.9463 -638.673 0
rclavicle 7.60861e-015 6.00841e-015 0
rhumerus 19.548 16.3716 -65.78
rradius 113.796 0 0
rwrist -4.56184 0 0
rhand -27.1914 -404.303 0
rfingers 7.12502 0 0
rthumb -0.602881 286.094 0
2448
root 2.57346 15.0111 -23.6387 943.421 83.056 -133.826
lfemur -32.3563 21.939 -14.1717
ltibia 71.4908 0 0
lfoot -25.409 18.0902 0
ltoes -32.964 0 0
rfemur -48.0404 -23.1122 10.9917
rtibia 54.3959 0 0
rfoot 12.2494 1.24627 0
rtoes 5.80216 0 0
lowerback 17.4202 0.8408 -3.4921
upperback -0.353332 0.839036 3.44361
thorax -10.2608 0.719311 5.52402
lowerneck 3.77374 -13.2048 -15.1838
upperneck 1.09898 -18.3837 13.7267
head 2.40496 -9.30132 5.91563
lclavicle 7.62168e-015 6.77056e-015 0
lhumerus -31.0184 -57.2824 109.756
lradius 98.8252 0 0
lwrist 59.2241 0 0
lhand -4.88296 413.317 0
lfingers 7.12502 0 0
lthumb 20.8919 -637.938 0
rclavicle 7.62168e-015 6.77056e-015 0
rhumerus 17.1851 14.292 -66.792
rradius 114.218 0 0
rwrist 0.518427 0 0
rhand -28.7466 -404.523 0
rfingers 7.12502 0 0
rthumb -2.10401 285.884 0
2449
root 2.6444 14.9901 -23.6398 941.694 82.9411 -135.422
lfemur -31.9503 21.9307 -13.9612
ltibia 71.6766 0 0
lfoot -25.8016 18.029 0
ltoes -33.4191 0 0
rfemur -47.1435 -22.7487 10.2189
rtibia 53.0846 0 0
rfoot 13.4158 1.27525 0
rtoes 6.84807 0 0
lowerback 17.2794 0.696337 -3.67399
upperback -0.421434 0.616307 3.49106
thorax -10.2325 0.624651 5.74154
lowerneck 3.70259 -13.203 -15.266
upperneck 1.40661 -18.3916 13.541
head 2.49737 -9.30225 5.85533
lclavicle 7.61405e-015 7.50598e-015 0
lhumerus -32.8605 -56.6498 110.457
lradius 100.265 0 0
lwrist 61.3152 0 0
lhand -3.91058 414.125 0
lfingers 7.12502 0 0
lthumb 21.8259 -637.236 0
rclavicle 7.61405e-015 7.50598e-015 0
rhumerus 14.8658 12.2156 -67.7735
rradius 114.615 0 0
rwrist 5.56448 0 0
rhand -30.2897 -404.742 0
rfingers 7.12502 0 0
rthumb -3.59355 285.674 0
2450
root 2.71534 14.9691 -23.641 939.968 82.8295 -137.028
lfemur -31.5679 21.9203 -13.7525
ltibia 71.8765 0 0
lfoot -26.1922 17.9688 0
ltoes -33.8772 0 0
rfemur -46.2594 -22.4013 9.46884
rtibia 51.8251 0 0
rfoot 14.5272 1.29667 0
rtoes 7.86465 0 0
lowerback 17.1384 0.555444 -3.85265
upperback -0.490383 0.398607 3.53545
thorax -10.2052 0.532149 5.95261
lowerneck 3.6329 -13.2034 -15.3456
upperneck 1.70778 -18.4022 13.3586
head 2.58809 -9.30451 5.79568
lclavicle 7.58799e-015 8.20382e-015 0
lhumerus -34.686 -55.9892 111.143
lradius 101.686 0 0
lwrist 63.3728 0 0
lhand -2.95546 414.89 0
lfingers 7.12502 0 0
lthumb 22.7433 -636.576 0
rclavicle 7.58799e-015 8.20382e-015 0
rhumerus 12.6113 10.1591 -68.7172
rradius 114.972 0 0
rwrist 10.524 0 0
rhand -31.8047 -404.96 0
rfingers 7.12502 0 0
rthumb -5.0559 285.466 0
2451
root 2.78629 14.9482 -23.6421 938.264 82.7229 -138.624
lfemur -31.2115 21.9104 -13.5486
ltibia 72.0902 0 0
lfoot -26.579 17.9127 0
ltoes -34.3312 0 0
rfemur -45.4058 -22.0787 8.74899
rtibia 50.6316 0 0
rfoot 15.5714 1.31855 0
rtoes 8.846 0 0
lowerback 16.9994 0.419165 -4.02654
upperback -0.559264 0.18763 3.57682
thorax -10.1793 0.442541 6.15588
lowerneck 3.56602 -13.2062 -15.4219
upperneck 1.99898 -18.4159 13.1819
head 2.67612 -9.3084 5.73751
lclavicle 7.54576e-015 8.85325e-015 0
lhumerus -36.4762 -55.3126 111.808
lradius 103.068 0 0
lwrist 65.3794 0 0
lhand -2.02302 415.602 0
lfingers 7.12502 0 0
lthumb 23.6387 -635.968 0
rclavicle 7.54576e-015 8.85325e-015 0
rhumerus 10.4423 8.13874 -69.6156
rradius 115.277 0 0
rwrist 15.3448 0 0
rhand -33.2754 -405.177 0
rfingers 7.12502 0 0
rthumb -6.47548 285.26 0
2452
root 2.85723 14.9272 -23.6432 936.601 82.6232 -140.19
lfemur -30.8831 21.9038 -13.3524
ltibia 72.3173 0 0
lfoot -26.9603 17.8635 0
ltoes -34.774 0 0
rfemur -44.6007 -21.7891 8.06692
rtibia 49.5185 0 0
rfoot 16.5364 1.34892 0
rtoes 9.78624 0 0
lowerback 16.8644 0.288547 -4.19412
upperback -0.627163 -0.0149274 3.61518
thorax -10.1554 0.356563 6.34998
lowerneck 3.50328 -13.2119 -15.4943
upperneck 2.27671 -18.4333 13.0134
head 2.76048 -9.31427 5.68164
lclavicle 7.48965e-015 9.4434e-015 0
lhumerus -38.2121 -54.6322 112.446
lradius 104.396 0 0
lwrist 67.3172 0 0
lhand -1.11865 416.249 0
lfingers 7.12502 0 0
lthumb 24.507 -635.423 0
rclavicle 7.48965e-015 9.4434e-015 0
rhumerus 8.37996 6.17113 -70.4614
rradius 115.514 0 0
rwrist 19.9744 0 0
rhand -34.6856 -405.391 0
rfingers 7.12502 0 0
rthumb -7.83669 285.055 0
2453
root 2.92817 14.9062 -23.6444 935.002 82.532 -141.706
lfemur -30.5848 21.903 -13.1669
ltibia 72.5574 0 0
lfoot -27.3343 17.8244 0
ltoes -35.1987 0 0
rfemur -43.8617 -21.5409 7.43022
rtibia 48.5 0 0
rfoot 17.4101 1.3958 0
rtoes 10.6795 0 0
lowerback 16.7358 0.164633 -4.35386
upperback -0.693168 -0.207371 3.65058
thorax -10.134 0.274952 6.53354
lowerneck 3.44603 -13.2211 -15.5621
upperneck 2.53746 -18.4549 12.8558
head 2.8402 -9.32242 5.62888
lclavicle 7.42192e-015 9.96342e-015 0
lhumerus -39.8747 -53.96 113.05
lradius 105.65 0 0
lwrist 69.1686 0 0
lhand -0.247749 416.822 0
lfingers 7.12502 0 0
lthumb 25.343 -634.95 0
rclavicle 7.42192e-015 9.96342e-015 0
rhumerus 6.44513 4.27273 -71.247
rradius 115.669 0 0
rwrist 24.3606 0 0
rhand -36.0192 -405.603 0
rfingers 7.12502 0 0
rthumb -9.12392 284.852 0
2454
root 2.99911 14.8852 -23.6455 933.485 82.4511 -143.152
lfemur -30.319 21.9106 -12.9951
ltibia 72.8104 0 0
lfoot -27.6993 17.7982 0
ltoes -35.5981 0 0
rfemur -43.2067 -21.3425 6.84644
rtibia 47.5905 0 0
rfoot 18.1803 1.46722 0
rtoes 11.5197 0 0
lowerback 16.6155 0.0484706 -4.50423
upperback -0.756365 -0.388006 3.68302
thorax -10.1156 0.198443 6.7052
lowerneck 3.39561 -13.234 -15.6245
upperneck 2.77772 -18.4813 12.7115
head 2.91429 -9.33319 5.58006
lclavicle 7.34484e-015 1.04025e-014 0
lhumerus -41.4453 -53.3082 113.613
lradius 106.812 0 0
lwrist 70.9159 0 0
lhand 0.584267 417.309 0
lfingers 7.12502 0 0
lthumb 26.1416 -634.56 0
rclavicle 7.34484e-015 1.04025e-014 0
rhumerus 4.6588 2.45999 -71.9652
rradius 115.73 0 0
rwrist 28.4511 0 0
rhand -37.2599 -405.811 0
rfingers 7.12502 0 0
rthumb -10.3216 284.651 0
2455
root 3.07005 14.8642 -23.6466 932.073 82.3824 -144.508
lfemur -30.0878 21.9294 -12.8401
ltibia 73.0757 0 0
lfoot -28.0535 17.788 0
ltoes -35.9652 0 0
rfemur -42.6535 -21.2024 6.32317
rtibia 46.8042 0 0
rfoot 18.835 1.5712 0
rtoes 12.3012 0 0
lowerback 16.5058 -0.0588963 -4.64368
upperback -0.81584 -0.555137 3.71254
thorax -10.1006 0.127773 6.86359
lowerneck 3.35335 -13.2511 -15.6811
upperneck 2.99399 -18.513 12.5831
head 2.98176 -9.34689 5.53598
lclavicle 7.26069e-015 1.07497e-014 0
lhumerus -42.9049 -52.6888 114.129
lradius 107.865 0 0
lwrist 72.5414 0 0
lhand 1.372 417.7 0
lfingers 7.12502 0 0
lthumb 26.8975 -634.263 0
rclavicle 7.26069e-015 1.07497e-014 0
rhumerus 3.04193 0.749406 -72.6084
rradius 115.681 0 0
rwrist 32.1937 0 0
rhand -38.3918 -406.017 0
rfingers 7.12502 0 0
rthumb -11.4141 284.453 0
2456
root 3.141 14.8433 -23.6477 930.785 82.3274 -145.754
lfemur -29.8933 21.9618 -12.7047
ltibia 73.3531 0 0
lfoot -28.3951 17.7968 0
ltoes -36.293 0 0
rfemur -42.2199 -21.1288 5.86796
rtibia 46.1555 0 0
rfoot 19.3621 1.71576 0
rtoes 13.018 0 0
lowerback 16.4088 -0.156422 -4.77068
upperback -0.870679 -0.707068 3.73916
thorax -10.0897 0.0636768 7.00735
lowerneck 3.32061 -13.2729 -15.7309
upperneck 3.18276 -18.5506 12.4731
head 3.04163 -9.36386 5.49748
lclavicle 7.17174e-015 1.09942e-014 0
lhumerus -44.2345 -52.114 114.592
lradius 108.791 0 0
lwrist 74.0275 0 0
lhand 2.11005 417.983 0
lfingers 7.12502 0 0
lthumb 27.6056 -634.068 0
rclavicle 7.17174e-015 1.09942e-014 0
rhumerus 1.61548 -0.842555 -73.1693
rradius 115.508 0 0
rwrist 35.5359 0 0
rhand -39.3985 -406.218 0
rfingers 7.12502 0 0
rthumb -12.3859 284.258 0
2457
root 3.21194 14.8223 -23.6489 929.642 82.2881 -146.87
lfemur -29.7377 22.0105 -12.5919
ltibia 73.6423 0 0
lfoot -28.7224 17.8276 0
ltoes -36.5745 0 0
rfemur -41.9237 -21.1302 5.48839
rtibia 45.6586 0 0
rfoot 19.7494 1.90893 0
rtoes 13.6641 0 0
lowerback 16.3267 -0.243061 -4.88369
upperback -0.919969 -0.842105 3.76291
thorax -10.0833 0.00689132 7.13512
lowerneck 3.29871 -13.2998 -15.7735
upperneck 3.34051 -18.5947 12.384
head 3.09291 -9.3844 5.46537
lclavicle 7.08026e-015 1.11253e-014 0
lhumerus -45.4154 -51.5957 114.994
lradius 109.572 0 0
lwrist 75.3565 0 0
lhand 2.793 418.148 0
lfingers 7.12502 0 0
lthumb 28.2607 -633.986 0
rclavicle 7.08026e-015 1.11253e-014 0
rhumerus 0.400403 -2.29942 -73.6404
rradius 115.198 0 0
rwrist 38.4255 0 0
rhand -40.264 -406.415 0
rfingers 7.12502 0 0
rthumb -13.2213 284.066 0
